<svg xmlns="http://www.w3.org/2000/svg" xmlns:xlink="http://www.w3.org/1999/xlink" width="22" height="22" viewBox="0 0 22 22">
  <defs>
    <rect id="plus-a" width="32" height="32" x="0" y="0"/>
  </defs>
  <g fill="none" fill-rule="evenodd" transform="translate(-5 -5)">
    <mask id="plus-b" fill="#fff">
      <use xlink:href="#plus-a"/>
    </mask>
    <path fill="#FFF" d="M16,5.33333333 C16.6837811,5.33333333 17.2473429,5.84805359 17.324363,6.51117183 L17.3333333,6.66666667 L17.3333333,14.6663333 L25.3333333,14.6666667 C26.069713,14.6666667 26.6666667,15.2636203 26.6666667,16 C26.6666667,16.6837811 26.1519464,17.2473429 25.4888282,17.324363 L25.3333333,17.3333333 L17.3333333,17.3333333 L17.3333333,25.3333333 C17.3333333,26.069713 16.7363797,26.6666667 16,26.6666667 C15.3162189,26.6666667 14.7526571,26.1519464 14.675637,25.4888282 L14.6666667,25.3333333 L14.6663333,17.3333333 L6.66666667,17.3333333 C5.930287,17.3333333 5.33333333,16.7363797 5.33333333,16 C5.33333333,15.3162189 5.84805359,14.7526571 6.51117183,14.675637 L6.66666667,14.6666667 L14.6663333,14.6663333 L14.6666667,6.66666667 C14.6666667,5.930287 15.2636203,5.33333333 16,5.33333333 Z" mask="url(#plus-b)"/>
  </g>
</svg>
