<svg xmlns="http://www.w3.org/2000/svg" width="138" height="32" viewBox="0 0 138 32">
  <path fill="#F3F5FA" d="M8.01717073,31.3194146 C9.54068293,31.3194146 10.7582439,30.8573659 11.6698537,29.9332683 C12.5814634,29.0091707 13.0372683,27.772878 13.0372683,26.2243902 L13.0372683,26.2243902 L13.0372683,7.56760976 C13.0372683,7.34282927 12.9373659,7.23043902 12.737561,7.23043902 L12.737561,7.23043902 L5.02009756,7.23043902 C3.49658537,7.23043902 2.27902439,7.6924878 1.36741463,8.61658537 C0.455804878,9.54068293 5.68434189e-14,10.7769756 5.68434189e-14,12.3254634 L5.68434189e-14,12.3254634 L5.68434189e-14,20.1178537 C5.68434189e-14,21.6663415 0.455804878,22.9026341 1.36741463,23.8267317 C2.27902439,24.7508293 3.49658537,25.212878 5.02009756,25.212878 L5.02009756,25.212878 L7.79239024,25.212878 C9.7404878,25.212878 11.0641951,24.5635122 11.7635122,23.2647805 L11.7635122,23.2647805 L11.9133659,23.2647805 L11.9133659,26.1869268 C11.9133659,27.4606829 11.5761951,28.4597073 10.9018537,29.184 C10.2275122,29.9082927 9.26595122,30.270439 8.01717073,30.270439 L8.01717073,30.270439 L1.31121951,30.270439 C1.08643902,30.270439 0.97404878,30.3703415 0.97404878,30.5701463 L0.97404878,30.5701463 L0.97404878,31.0197073 C0.97404878,31.2195122 1.08643902,31.3194146 1.31121951,31.3194146 L1.31121951,31.3194146 L8.01717073,31.3194146 Z M7.71746341,24.1639024 L5.02009756,24.1639024 C3.77131707,24.1639024 2.8097561,23.8017561 2.13541463,23.0774634 C1.46107317,22.3531707 1.12390244,21.3541463 1.12390244,20.0803902 L1.12390244,20.0803902 L1.12390244,12.3629268 C1.12390244,11.0891707 1.46107317,10.0901463 2.13541463,9.36585366 C2.8097561,8.64156098 3.77131707,8.27941463 5.02009756,8.27941463 L5.02009756,8.27941463 L11.5761951,8.27941463 C11.8009756,8.27941463 11.9133659,8.37931707 11.9133659,8.57912195 L11.9133659,8.57912195 L11.9133659,20.2677073 C11.9133659,21.5164878 11.5262439,22.4780488 10.752,23.1523902 C9.9777561,23.8267317 8.9662439,24.1639024 7.71746341,24.1639024 L7.71746341,24.1639024 Z M26.8417561,26.3367805 C28.3652683,26.3367805 29.5828293,25.8747317 30.494439,24.9506341 C31.4060488,24.0265366 31.8618537,22.7902439 31.8618537,21.2417561 L31.8618537,21.2417561 L31.8618537,12.3254634 C31.8618537,10.7769756 31.4060488,9.54068293 30.494439,8.61658537 C29.5828293,7.6924878 28.3652683,7.23043902 26.8417561,7.23043902 L26.8417561,7.23043902 L23.6573659,7.23043902 C22.1338537,7.23043902 20.9162927,7.6924878 20.0046829,8.61658537 C19.0930732,9.54068293 18.6372683,10.7769756 18.6372683,12.3254634 L18.6372683,12.3254634 L18.6372683,21.2417561 C18.6372683,22.7902439 19.0930732,24.0265366 20.0046829,24.9506341 C20.9162927,25.8747317 22.1338537,26.3367805 23.6573659,26.3367805 L23.6573659,26.3367805 L26.8417561,26.3367805 Z M26.8417561,25.2878049 L23.6573659,25.2878049 C22.4085854,25.2878049 21.4470244,24.9256585 20.7726829,24.2013659 C20.0983415,23.4770732 19.7611707,22.4780488 19.7611707,21.2042927 L19.7611707,21.2042927 L19.7611707,12.3629268 C19.7611707,11.0891707 20.0983415,10.0901463 20.7726829,9.36585366 C21.4470244,8.64156098 22.4085854,8.27941463 23.6573659,8.27941463 L23.6573659,8.27941463 L26.8417561,8.27941463 C28.0905366,8.27941463 29.0520976,8.64156098 29.726439,9.36585366 C30.4007805,10.0901463 30.7379512,11.0891707 30.7379512,12.3629268 L30.7379512,12.3629268 L30.7379512,21.2042927 C30.7379512,22.4780488 30.4007805,23.4770732 29.726439,24.2013659 C29.0520976,24.9256585 28.0905366,25.2878049 26.8417561,25.2878049 L26.8417561,25.2878049 Z M40.8710244,26.3367805 C41.3955122,26.3367805 41.6577561,26.0745366 41.6577561,25.5500488 L41.6577561,25.5500488 L41.6577561,18.4694634 C41.6577561,18.1947317 41.8076098,18.0573659 42.1073171,18.0573659 L42.1073171,18.0573659 L46.8277073,18.0573659 C48.7758049,18.0573659 50.2868293,17.5266341 51.3607805,16.4651707 C52.4347317,15.4037073 52.9717073,13.8989268 52.9717073,11.9508293 L52.9717073,11.9508293 L52.9717073,8.35434146 C52.9717073,6.4062439 52.4347317,4.90146341 51.3607805,3.84 C50.2868293,2.77853659 48.7758049,2.24780488 46.8277073,2.24780488 L46.8277073,2.24780488 L37.6866341,2.24780488 C37.1621463,2.24780488 36.8999024,2.51004878 36.8999024,3.03453659 L36.8999024,3.03453659 L36.8999024,25.5500488 C36.8999024,26.0745366 37.1621463,26.3367805 37.6866341,26.3367805 L37.6866341,26.3367805 L40.8710244,26.3367805 Z M46.0409756,13.8989268 L42.0698537,13.8989268 C41.795122,13.8989268 41.6577561,13.761561 41.6577561,13.4868293 L41.6577561,13.4868293 L41.6577561,6.78087805 C41.6577561,6.50614634 41.795122,6.36878049 42.0698537,6.36878049 L42.0698537,6.36878049 L46.0409756,6.36878049 C46.8401951,6.36878049 47.4021463,6.53736585 47.7268293,6.87453659 C48.0515122,7.21170732 48.2138537,7.77990244 48.2138537,8.57912195 L48.2138537,8.57912195 L48.2138537,11.7260488 C48.2138537,12.5002927 48.0515122,13.056 47.7268293,13.3931707 C47.4021463,13.7303415 46.8401951,13.8989268 46.0409756,13.8989268 L46.0409756,13.8989268 Z M65.502439,26.3367805 C67.4505366,26.3367805 68.9678049,25.8060488 70.0542439,24.7445854 C71.1406829,23.683122 71.6839024,22.1783415 71.6839024,20.2302439 L71.6839024,20.2302439 L71.6839024,13.3369756 C71.6839024,11.388878 71.1406829,9.88409756 70.0542439,8.82263415 C68.9678049,7.76117073 67.4505366,7.23043902 65.502439,7.23043902 L65.502439,7.23043902 L62.1681951,7.23043902 C60.195122,7.23043902 58.6716098,7.75492683 57.5976585,8.80390244 C56.5237073,9.85287805 55.9867317,11.3639024 55.9867317,13.3369756 L55.9867317,13.3369756 L55.9867317,20.2302439 C55.9867317,22.2033171 56.5237073,23.7143415 57.5976585,24.7633171 C58.6716098,25.8122927 60.195122,26.3367805 62.1681951,26.3367805 L62.1681951,26.3367805 L65.502439,26.3367805 Z M64.7906341,22.2532683 L62.88,22.2532683 C62.0807805,22.2532683 61.5188293,22.0909268 61.1941463,21.7662439 C60.8694634,21.441561 60.707122,20.8796098 60.707122,20.0803902 L60.707122,20.0803902 L60.707122,13.4868293 C60.707122,12.6876098 60.8694634,12.1256585 61.1941463,11.8009756 C61.5188293,11.4762927 62.0807805,11.3139512 62.88,11.3139512 L62.88,11.3139512 L64.7906341,11.3139512 C65.5898537,11.3139512 66.1580488,11.4762927 66.4952195,11.8009756 C66.8323902,12.1256585 67.0009756,12.6876098 67.0009756,13.4868293 L67.0009756,13.4868293 L67.0009756,20.0803902 C67.0009756,20.8796098 66.8323902,21.441561 66.4952195,21.7662439 C66.1580488,22.0909268 65.5898537,22.2532683 64.7906341,22.2532683 L64.7906341,22.2532683 Z M86.7996098,26.3367805 C87.0993171,26.3367805 87.3053659,26.2805854 87.4177561,26.1681951 C87.5301463,26.0558049 87.5863415,25.8622439 87.5863415,25.5875122 L87.5863415,25.5875122 L87.5863415,23.0025366 C87.5863415,22.4780488 87.3240976,22.2158049 86.7996098,22.2158049 L86.7996098,22.2158049 L81.9668293,22.2158049 C81.1925854,22.2158049 80.636878,22.0472195 80.2997073,21.7100488 C79.9625366,21.372878 79.7939512,20.8046829 79.7939512,20.0054634 L79.7939512,20.0054634 L79.7939512,13.5617561 C79.7939512,12.7625366 79.9625366,12.1943415 80.2997073,11.8571707 C80.636878,11.52 81.1925854,11.3514146 81.9668293,11.3514146 L81.9668293,11.3514146 L86.7996098,11.3514146 C87.0993171,11.3514146 87.3053659,11.2952195 87.4177561,11.1828293 C87.5301463,11.070439 87.5863415,10.876878 87.5863415,10.6021463 L87.5863415,10.6021463 L87.5863415,8.01717073 C87.5863415,7.49268293 87.3240976,7.23043902 86.7996098,7.23043902 L86.7996098,7.23043902 L81.217561,7.23043902 C79.2444878,7.23043902 77.7209756,7.75492683 76.6470244,8.80390244 C75.5730732,9.85287805 75.0360976,11.3639024 75.0360976,13.3369756 L75.0360976,13.3369756 L75.0360976,20.2302439 C75.0360976,22.2033171 75.5730732,23.7143415 76.6470244,24.7633171 C77.7209756,25.8122927 79.2444878,26.3367805 81.217561,26.3367805 L81.217561,26.3367805 L86.7996098,26.3367805 Z M94.7598049,26.3367805 C95.2842927,26.3367805 95.5465366,26.0745366 95.5465366,25.5500488 L95.5465366,25.5500488 L95.5465366,0.786731707 C95.5465366,0.262243902 95.2842927,0 94.7598049,0 L94.7598049,0 L91.5754146,0 C91.0509268,0 90.7886829,0.262243902 90.7886829,0.786731707 L90.7886829,0.786731707 L90.7886829,25.5500488 C90.7886829,26.0745366 91.0509268,26.3367805 91.5754146,26.3367805 L91.5754146,26.3367805 L94.7598049,26.3367805 Z M105.436878,26.3367805 C105.761561,26.3367805 105.986341,26.243122 106.11122,26.0558049 C106.236098,25.8684878 106.22361,25.6499512 106.073756,25.4001951 L106.073756,25.4001951 L100.866341,16.5213659 L100.866341,16.3715122 L105.848976,8.16702439 C106.023805,7.89229268 106.061268,7.6675122 105.961366,7.49268293 C105.861463,7.31785366 105.661659,7.23043902 105.361951,7.23043902 L105.361951,7.23043902 L101.728,7.23043902 C101.153561,7.23043902 100.728976,7.48019512 100.454244,7.97970732 L100.454244,7.97970732 L95.9586341,15.9594146 C95.7338537,16.384 95.7338537,16.7960976 95.9586341,17.1957073 L95.9586341,17.1957073 L100.716488,25.5500488 C100.916293,25.8747317 101.109854,26.0870244 101.297171,26.1869268 C101.484488,26.2868293 101.790439,26.3367805 102.215024,26.3367805 L102.215024,26.3367805 L105.436878,26.3367805 Z M122.538146,26.3367805 C122.837854,26.3367805 123.043902,26.2805854 123.156293,26.1681951 C123.268683,26.0558049 123.324878,25.8622439 123.324878,25.5875122 L123.324878,25.5875122 L123.324878,23.1149268 C123.324878,22.5654634 123.062634,22.2907317 122.538146,22.2907317 L122.538146,22.2907317 L114.970537,22.2907317 C114.171317,22.2907317 113.603122,22.1221463 113.265951,21.7849756 C112.92878,21.4478049 112.760195,20.8920976 112.760195,20.1178537 L112.760195,20.1178537 L112.760195,19.2936585 C112.760195,19.0189268 112.910049,18.881561 113.209756,18.881561 L113.209756,18.881561 L122.613073,18.881561 C123.137561,18.881561 123.399805,18.6193171 123.399805,18.0948293 L123.399805,18.0948293 L123.399805,13.3369756 C123.399805,11.3639024 122.862829,9.85287805 121.788878,8.80390244 C120.714927,7.75492683 119.191415,7.23043902 117.218341,7.23043902 L117.218341,7.23043902 L114.258732,7.23043902 C112.285659,7.23043902 110.762146,7.75492683 109.688195,8.80390244 C108.614244,9.85287805 108.077268,11.3639024 108.077268,13.3369756 L108.077268,13.3369756 L108.077268,20.2302439 C108.077268,22.2033171 108.614244,23.7143415 109.688195,24.7633171 C110.762146,25.8122927 112.285659,26.3367805 114.258732,26.3367805 L114.258732,26.3367805 L122.538146,26.3367805 Z M118.30478,15.6971707 L113.209756,15.6971707 C112.935024,15.6971707 112.797659,15.5598049 112.797659,15.2850732 L112.797659,15.2850732 L112.797659,13.4868293 C112.797659,12.6876098 112.96,12.1256585 113.284683,11.8009756 C113.609366,11.4762927 114.171317,11.3139512 114.970537,11.3139512 L114.970537,11.3139512 L116.544,11.3139512 C117.34322,11.3139512 117.905171,11.4762927 118.229854,11.8009756 C118.554537,12.1256585 118.716878,12.6876098 118.716878,13.4868293 L118.716878,13.4868293 L118.716878,15.2850732 C118.716878,15.5598049 118.579512,15.6971707 118.30478,15.6971707 L118.30478,15.6971707 Z M136.267707,26.3367805 C136.567415,26.3367805 136.773463,26.2805854 136.885854,26.1681951 C136.998244,26.0558049 137.054439,25.8622439 137.054439,25.5875122 L137.054439,25.5875122 L137.054439,23.0025366 C137.054439,22.4780488 136.792195,22.2158049 136.267707,22.2158049 L136.267707,22.2158049 L134.769171,22.2158049 C133.969951,22.2158049 133.395512,22.0472195 133.045854,21.7100488 C132.696195,21.372878 132.521366,20.8171707 132.521366,20.0429268 L132.521366,20.0429268 L132.521366,11.7635122 C132.521366,11.4887805 132.67122,11.3514146 132.970927,11.3514146 L132.970927,11.3514146 L135.893073,11.3514146 C136.19278,11.3514146 136.398829,11.2952195 136.51122,11.1828293 C136.62361,11.070439 136.679805,10.876878 136.679805,10.6021463 L136.679805,10.6021463 L136.679805,8.01717073 C136.679805,7.49268293 136.417561,7.23043902 135.893073,7.23043902 L135.893073,7.23043902 L132.970927,7.23043902 C132.67122,7.23043902 132.521366,7.09307317 132.521366,6.81834146 L132.521366,6.81834146 L132.521366,3.25931707 C132.521366,2.73482927 132.259122,2.47258537 131.734634,2.47258537 L131.734634,2.47258537 L128.587707,2.47258537 C128.038244,2.47258537 127.763512,2.73482927 127.763512,3.25931707 L127.763512,3.25931707 L127.763512,6.81834146 C127.763512,7.09307317 127.626146,7.23043902 127.351415,7.23043902 L127.351415,7.23043902 L125.852878,7.23043902 C125.32839,7.23043902 125.066146,7.49268293 125.066146,8.01717073 L125.066146,8.01717073 L125.066146,10.6021463 C125.066146,10.9018537 125.122341,11.1016585 125.234732,11.201561 C125.347122,11.3014634 125.553171,11.3514146 125.852878,11.3514146 L125.852878,11.3514146 L127.351415,11.3514146 C127.626146,11.3514146 127.763512,11.4887805 127.763512,11.7635122 L127.763512,11.7635122 L127.763512,20.2677073 C127.763512,22.2158049 128.306732,23.7143415 129.393171,24.7633171 C130.47961,25.8122927 132.009366,26.3367805 133.982439,26.3367805 L133.982439,26.3367805 L136.267707,26.3367805 Z"/>
</svg>
